<?xml version="1.0" standalone="no"?>
<!DOCTYPE svg PUBLIC "-//W3C//DTD SVG 20010904//EN"
 "http://www.w3.org/TR/2001/REC-SVG-20010904/DTD/svg10.dtd">
<svg version="1.0" xmlns="http://www.w3.org/2000/svg"
 width="844.000000pt" height="844.000000pt" viewBox="0 0 844.000000 844.000000"
 preserveAspectRatio="xMidYMid meet">
<metadata>
Created by potrace 1.11, written by Peter Selinger 2001-2013
</metadata>
<g transform="translate(0.000000,844.000000) scale(0.100000,-0.100000)"
fill="#000000" stroke="none">
<path d="M4025 8164 c-235 -18 -401 -40 -570 -75 -1535 -321 -2725 -1538
-3009 -3079 -45 -246 -60 -414 -60 -700 0 -445 57 -804 189 -1204 293 -885
890 -1628 1700 -2113 459 -276 982 -453 1525 -518 373 -45 884 -21 1225 57
376 86 617 171 935 330 537 268 1003 654 1356 1123 229 304 419 654 550 1012
113 311 173 575 215 948 16 142 16 586 0 735 -84 778 -360 1453 -838 2050
-120 150 -380 416 -518 531 -602 501 -1289 796 -2060 885 -126 14 -538 26
-640 18z m545 -1915 c41 -20 94 -54 118 -75 l44 -39 -57 -62 c-59 -66 -74 -73
-96 -47 -7 8 -36 28 -63 42 -46 24 -61 27 -151 27 -120 -1 -173 -22 -244 -95
-83 -85 -121 -194 -121 -349 0 -213 71 -353 213 -417 83 -37 215 -41 290 -7
l47 22 0 135 0 135 -112 3 -113 3 -3 88 -3 87 216 0 215 0 -2 -277 -3 -278
-63 -41 c-103 -68 -183 -89 -337 -88 -109 0 -141 4 -195 23 -180 63 -300 200
-357 405 -22 78 -24 307 -4 386 57 229 203 387 411 444 39 11 91 15 175 13
114 -3 124 -5 195 -38z m-1447 10 c66 -10 168 -50 208 -81 8 -7 31 -34 51 -59
102 -135 86 -382 -32 -500 -95 -94 -173 -120 -395 -128 l-170 -6 -3 -228 -2
-228 -108 3 -107 3 -3 618 -2 617 246 0 c135 0 278 -5 317 -11z m2590 -126
c24 -76 100 -307 167 -513 67 -206 136 -420 154 -475 19 -55 31 -103 29 -107
-2 -5 -53 -8 -113 -8 l-109 0 -22 73 c-11 39 -34 116 -51 170 l-29 97 -206 -2
-207 -3 -32 -110 c-17 -60 -39 -136 -48 -167 l-17 -58 -110 0 c-60 0 -109 4
-109 8 0 9 14 52 181 567 67 204 141 433 166 510 25 77 48 143 50 148 2 4 62
7 132 7 l129 0 45 -137z"/>
<path d="M2785 6089 c-3 -8 -4 -107 -3 -219 l3 -205 80 -3 c242 -9 354 51 363
194 6 88 -4 129 -39 169 -42 48 -106 65 -266 72 -109 5 -133 3 -138 -8z"/>
<path d="M5522 6059 c-6 -19 -23 -81 -37 -139 -15 -58 -45 -164 -66 -237 -21
-72 -39 -134 -39 -137 0 -9 298 -7 303 2 3 4 -17 84 -44 177 -27 94 -58 208
-70 255 -28 112 -34 122 -47 79z"/>
</g>
</svg>
